HIERARCHY
ROOT Hips
{
	OFFSET 0.000000 97.167313 0.000000
	CHANNELS 6 Xposition Yposition Zposition Xrotation Yrotation Zrotation
	JOINT Spine
	{
		OFFSET 0.000000 13.784798 0.064400
		CHANNELS 3 Xrotation Yrotation Zrotation
		JOINT Spine1
		{
			OFFSET 0.000000 12.037903 0.404700
			CHANNELS 3 Xrotation Yrotation Zrotation
			JOINT Spine2
			{
				OFFSET 0.000000 17.795601 0.420200
				CHANNELS 3 Xrotation Yrotation Zrotation
				JOINT Neck
				{
					OFFSET 0.000000 39.131302 11.954600
					CHANNELS 3 Xrotation Yrotation Zrotation
					JOINT Head
					{
						OFFSET 0.000000 14.456192 15.627699
						CHANNELS 3 Xrotation Yrotation Zrotation
						JOINT HeadTop_End
						{
							OFFSET 0.000000 15.703506 7.603401
							CHANNELS 3 Xrotation Yrotation Zrotation
							End Site
							{
								OFFSET 0.000000 17.447403 0.000000
							}
						}
					}
				}
				JOINT LeftShoulder
				{
					OFFSET 17.399500 24.608795 1.168800
					CHANNELS 3 Xrotation Yrotation Zrotation
					JOINT LeftArm
					{
						OFFSET 18.980635 5.765305 1.818600
						CHANNELS 3 Xrotation Yrotation Zrotation
						JOINT LeftForeArm
						{
							OFFSET 49.290169 0.000000 0.000000
							CHANNELS 3 Xrotation Yrotation Zrotation
							JOINT LeftHand
							{
								OFFSET 31.562012 0.000000 0.000000
								CHANNELS 3 Xrotation Yrotation Zrotation
								JOINT LeftHandThumb1
								{
									OFFSET 6.133995 -4.388519 7.076070
									CHANNELS 3 Xrotation Yrotation Zrotation
									JOINT LeftHandThumb2
									{
										OFFSET 6.037666 -3.485840 3.485847
										CHANNELS 3 Xrotation Yrotation Zrotation
										JOINT LeftHandThumb3
										{
											OFFSET 6.496506 -3.750763 3.750761
											CHANNELS 3 Xrotation Yrotation Zrotation
											JOINT LeftHandThumb4
											{
												OFFSET 5.616882 -3.242905 3.242910
												CHANNELS 3 Xrotation Yrotation Zrotation
												End Site
												{
													OFFSET -1.254608 7.132141 0.375429
												}
											}
										}
									}
								}
								JOINT LeftHandPinky1
								{
									OFFSET 18.920792 -0.453171 -11.426712
									CHANNELS 3 Xrotation Yrotation Zrotation
									JOINT LeftHandPinky2
									{
										OFFSET 4.919586 0.000000 0.000000
										CHANNELS 3 Xrotation Yrotation Zrotation
										JOINT LeftHandPinky3
										{
											OFFSET 5.233047 0.000000 0.000000
											CHANNELS 3 Xrotation Yrotation Zrotation
											JOINT LeftHandPinky4
											{
												OFFSET 5.571716 0.000000 0.000000
												CHANNELS 3 Xrotation Yrotation Zrotation
												End Site
												{
													OFFSET -3.459808 4.342407 -0.466164
												}
											}
										}
									}
								}
								JOINT LeftHandRing1
								{
									OFFSET 22.726120 -0.094986 -6.500475
									CHANNELS 3 Xrotation Yrotation Zrotation
									JOINT LeftHandRing2
									{
										OFFSET 6.408615 0.000000 0.000000
										CHANNELS 3 Xrotation Yrotation Zrotation
										JOINT LeftHandRing3
										{
											OFFSET 6.150223 0.000000 0.000000
											CHANNELS 3 Xrotation Yrotation Zrotation
											JOINT LeftHandRing4
											{
												OFFSET 6.145386 0.000000 0.000000
												CHANNELS 3 Xrotation Yrotation Zrotation
												End Site
												{
													OFFSET -3.671402 4.923981 -0.202372
												}
											}
										}
									}
								}
								JOINT LeftHandMiddle1
								{
									OFFSET 23.373947 0.000000 0.000001
									CHANNELS 3 Xrotation Yrotation Zrotation
									JOINT LeftHandMiddle2
									{
										OFFSET 6.996567 0.000000 0.000000
										CHANNELS 3 Xrotation Yrotation Zrotation
										JOINT LeftHandMiddle3
										{
											OFFSET 7.015945 0.000000 0.000000
											CHANNELS 3 Xrotation Yrotation Zrotation
											JOINT LeftHandMiddle4
											{
												OFFSET 7.721573 0.000000 0.000000
												CHANNELS 3 Xrotation Yrotation Zrotation
												End Site
												{
													OFFSET -4.651108 6.158463 0.251582
												}
											}
										}
									}
								}
								JOINT LeftHandIndex1
								{
									OFFSET 21.310577 -0.490082 6.209344
									CHANNELS 3 Xrotation Yrotation Zrotation
									JOINT LeftHandIndex2
									{
										OFFSET 7.536453 0.000000 0.000000
										CHANNELS 3 Xrotation Yrotation Zrotation
										JOINT LeftHandIndex3
										{
											OFFSET 7.512344 0.000000 0.000000
											CHANNELS 3 Xrotation Yrotation Zrotation
											JOINT LeftHandIndex4
											{
												OFFSET 10.212402 0.000000 0.000001
												CHANNELS 3 Xrotation Yrotation Zrotation
												End Site
												{
													OFFSET -5.180801 8.690506 1.388433
												}
											}
										}
									}
								}
							}
						}
					}
				}
				JOINT RightShoulder
				{
					OFFSET -17.399500 24.608795 1.168800
					CHANNELS 3 Xrotation Yrotation Zrotation
					JOINT RightArm
					{
						OFFSET -18.980635 5.765305 1.818600
						CHANNELS 3 Xrotation Yrotation Zrotation
						JOINT RightForeArm
						{
							OFFSET -49.290169 0.000000 0.000000
							CHANNELS 3 Xrotation Yrotation Zrotation
							JOINT RightHand
							{
								OFFSET -31.562012 0.000000 0.000000
								CHANNELS 3 Xrotation Yrotation Zrotation
								JOINT RightHandThumb1
								{
									OFFSET -6.133995 -4.388519 7.076070
									CHANNELS 3 Xrotation Yrotation Zrotation
									JOINT RightHandThumb2
									{
										OFFSET -6.037666 -3.485840 3.485847
										CHANNELS 3 Xrotation Yrotation Zrotation
										JOINT RightHandThumb3
										{
											OFFSET -6.496506 -3.750763 3.750761
											CHANNELS 3 Xrotation Yrotation Zrotation
											JOINT RightHandThumb4
											{
												OFFSET -5.616882 -3.242905 3.242910
												CHANNELS 3 Xrotation Yrotation Zrotation
												End Site
												{
													OFFSET 1.254608 7.132141 0.375429
												}
											}
										}
									}
								}
								JOINT RightHandIndex1
								{
									OFFSET -21.310577 -0.490082 6.209344
									CHANNELS 3 Xrotation Yrotation Zrotation
									JOINT RightHandIndex2
									{
										OFFSET -7.536453 0.000000 0.000000
										CHANNELS 3 Xrotation Yrotation Zrotation
										JOINT RightHandIndex3
										{
											OFFSET -7.512344 0.000000 0.000000
											CHANNELS 3 Xrotation Yrotation Zrotation
											JOINT RightHandIndex4
											{
												OFFSET -10.212402 0.000000 0.000001
												CHANNELS 3 Xrotation Yrotation Zrotation
												End Site
												{
													OFFSET 5.180801 8.690506 1.388433
												}
											}
										}
									}
								}
								JOINT RightHandMiddle1
								{
									OFFSET -23.373947 0.000000 0.000001
									CHANNELS 3 Xrotation Yrotation Zrotation
									JOINT RightHandMiddle2
									{
										OFFSET -6.996567 0.000000 0.000000
										CHANNELS 3 Xrotation Yrotation Zrotation
										JOINT RightHandMiddle3
										{
											OFFSET -7.015945 0.000000 0.000000
											CHANNELS 3 Xrotation Yrotation Zrotation
											JOINT RightHandMiddle4
											{
												OFFSET -7.721573 0.000000 0.000000
												CHANNELS 3 Xrotation Yrotation Zrotation
												End Site
												{
													OFFSET 4.651108 6.158463 0.251582
												}
											}
										}
									}
								}
								JOINT RightHandRing1
								{
									OFFSET -22.726120 -0.094986 -6.500475
									CHANNELS 3 Xrotation Yrotation Zrotation
									JOINT RightHandRing2
									{
										OFFSET -6.408615 0.000000 0.000000
										CHANNELS 3 Xrotation Yrotation Zrotation
										JOINT RightHandRing3
										{
											OFFSET -6.150223 0.000000 0.000000
											CHANNELS 3 Xrotation Yrotation Zrotation
											JOINT RightHandRing4
											{
												OFFSET -6.145386 0.000000 0.000000
												CHANNELS 3 Xrotation Yrotation Zrotation
												End Site
												{
													OFFSET 3.671402 4.923981 -0.202372
												}
											}
										}
									}
								}
								JOINT RightHandPinky1
								{
									OFFSET -18.920792 -0.453171 -11.426712
									CHANNELS 3 Xrotation Yrotation Zrotation
									JOINT RightHandPinky2
									{
										OFFSET -4.919586 0.000000 0.000000
										CHANNELS 3 Xrotation Yrotation Zrotation
										JOINT RightHandPinky3
										{
											OFFSET -5.233047 0.000000 0.000000
											CHANNELS 3 Xrotation Yrotation Zrotation
											JOINT RightHandPinky4
											{
												OFFSET -5.571716 0.000000 0.000000
												CHANNELS 3 Xrotation Yrotation Zrotation
												End Site
												{
													OFFSET 3.459808 4.342407 -0.466164
												}
											}
										}
									}
								}
							}
						}
					}
				}
			}
		}
	}
	JOINT LeftUpLeg
	{
		OFFSET 19.899099 -7.885101 -3.429500
		CHANNELS 3 Xrotation Yrotation Zrotation
		JOINT LeftLeg
		{
			OFFSET 1.745560 -36.997807 10.304700
			CHANNELS 3 Xrotation Yrotation Zrotation
			JOINT LeftFoot
			{
				OFFSET -1.745558 -29.803308 -13.615400
				CHANNELS 3 Xrotation Yrotation Zrotation
				JOINT LeftToeBase
				{
					OFFSET 1.181900 -18.539904 15.226099
					CHANNELS 3 Xrotation Yrotation Zrotation
					JOINT LeftToe_End
					{
						OFFSET -0.863701 1.402801 16.534700
						CHANNELS 3 Xrotation Yrotation Zrotation
						End Site
						{
							OFFSET 0.000000 16.616566 0.000000
						}
					}
				}
			}
		}
	}
	JOINT RightUpLeg
	{
		OFFSET -19.899099 -7.885101 -3.429500
		CHANNELS 3 Xrotation Yrotation Zrotation
		JOINT RightLeg
		{
			OFFSET -1.745560 -36.997807 10.304700
			CHANNELS 3 Xrotation Yrotation Zrotation
			JOINT RightFoot
			{
				OFFSET 1.745558 -29.803308 -13.615400
				CHANNELS 3 Xrotation Yrotation Zrotation
				JOINT RightToeBase
				{
					OFFSET -1.181900 -18.539904 15.226099
					CHANNELS 3 Xrotation Yrotation Zrotation
					JOINT RightToe_End
					{
						OFFSET 0.863701 1.402801 16.534700
						CHANNELS 3 Xrotation Yrotation Zrotation
						End Site
						{
							OFFSET 0.000000 16.616566 0.000000
						}
					}
				}
			}
		}
	}
}
MOTION
Frames: 4
Frame Time: 0.033333
-10.583945 56.068703 4.350882 -5.703797 -74.533381 2.524508 30.818063 9.529190 -0.574007 15.807272 0.240337 -9.709121 15.781830 1.760457 -9.405208 -9.265896 8.552292 0.389791 -21.082091 34.334541 0.865816 0.000001 0.000000 -0.000001 -11.155558 -9.346132 -0.362153 -62.800154 12.717711 -58.646197 -78.783541 21.502819 -91.851503 -23.344970 -1.193405 8.591018 0.699130 9.503392 -2.418103 5.975212 12.647524 1.348332 -23.873529 -17.664228 1.604914 0.000000 -0.000001 -0.000002 -7.938268 1.609070 -6.495676 2.210591 4.583672 -51.475174 0.883831 3.096053 -31.858106 -0.000003 -0.000000 -0.000001 1.254232 -0.073743 -17.945776 3.754104 5.463597 -68.965267 5.298517 9.638345 -33.747043 0.000003 0.000003 0.000004 10.058172 -1.800567 -20.644713 1.774245 4.200453 -45.782102 1.632177 4.057815 -43.809431 0.000001 0.000001 0.000007 9.479720 -1.289796 -20.785541 0.709475 2.796423 -28.467110 0.714021 2.804758 -28.559729 -0.000000 0.000000 -0.000002 -9.320466 6.131252 0.506288 -27.117026 59.284567 39.315457 -104.797915 44.224256 100.629409 9.171632 13.998561 -6.964611 13.942480 -4.273693 -5.300367 7.113179 -20.767503 -2.619495 -3.463339 -24.899716 -18.660434 -0.000000 -0.000001 -0.000000 0.357781 -5.832710 5.175844 0.094340 -0.933622 11.539839 0.777637 -2.578460 33.559943 -0.000000 -0.000003 -0.000002 3.764095 -12.080531 1.143762 5.714268 -4.535887 103.133466 3.160510 -4.410618 71.234946 0.000000 0.000000 -0.000008 -12.155623 -12.623908 9.228348 6.566934 -4.248385 114.232277 3.755136 -4.569157 78.819734 0.000001 0.000001 -0.000003 -17.635757 -10.496822 3.325436 4.993674 -4.645020 94.147935 3.647348 -4.546574 77.463423 -0.000001 -0.000000 0.000006 -75.587436 3.592911 -3.385598 98.573010 -2.648980 -1.624068 7.849697 0.839397 -3.088316 -20.665253 -3.148030 1.504660 -0.000000 0.000000 -0.000000 -36.153042 -1.865206 -9.582421 103.052439 0.096004 2.304287 -66.182265 0.548272 -2.536675 -0.000063 0.298046 0.000006 0.000000 0.000000 0.000000 
-18.272425 56.755638 3.704138 -5.007526 -75.931117 3.940174 30.708213 9.747563 -1.566344 15.814053 0.232715 -9.698044 15.787076 1.753211 -9.395409 -9.257654 8.603070 0.384912 -21.061667 34.595004 0.868064 -0.000000 0.000000 0.000002 -10.783043 -8.508726 -0.369636 -63.071606 12.947471 -58.493173 -78.349619 23.548037 -91.981550 -21.960240 -1.476869 8.334642 0.699130 9.503392 -2.418102 5.975213 12.647524 1.348332 -23.873531 -17.664227 1.604916 0.000000 -0.000001 -0.000003 -7.938273 1.609068 -6.495676 2.210598 4.583667 -51.475174 0.883832 3.096056 -31.858106 -0.000002 0.000001 -0.000000 1.254231 -0.073735 -17.945776 3.754105 5.463597 -68.965267 5.298521 9.638346 -33.747046 0.000000 0.000002 0.000005 10.058172 -1.800566 -20.644711 1.774245 4.200454 -45.782102 1.632180 4.057815 -43.809424 0.000001 0.000002 0.000006 9.479723 -1.289791 -20.785546 0.709474 2.796421 -28.467107 0.714018 2.804757 -28.559731 -0.000001 -0.000001 0.000001 -9.100568 6.829297 0.585913 -28.289790 59.169498 40.236118 -104.884057 45.269329 100.740468 8.254627 13.087606 -6.440362 13.942482 -4.273695 -5.300369 7.113181 -20.767498 -2.619494 -3.463340 -24.899714 -18.660434 -0.000000 0.000001 -0.000007 0.357783 -5.832716 5.175841 0.094342 -0.933621 11.539845 0.777639 -2.578459 33.559943 -0.000001 -0.000001 -0.000001 3.764099 -12.080533 1.143762 5.714268 -4.535889 103.133473 3.160509 -4.410619 71.234946 0.000001 0.000000 -0.000001 -12.155620 -12.623911 9.228345 6.566932 -4.248384 114.232277 3.755136 -4.569156 78.819727 -0.000001 -0.000001 -0.000005 -17.635758 -10.496823 3.325435 4.993676 -4.645020 94.147929 3.647351 -4.546573 77.463423 0.000001 0.000001 0.000002 -81.948405 5.906421 -1.278928 87.342663 -2.267272 -3.976076 11.664877 -0.336093 -2.561838 -4.267465 -2.192460 4.438060 0.000001 -0.000000 -0.000000 -20.768877 -3.374731 -5.778136 100.007036 -2.639289 1.794652 -78.048285 0.538006 -2.697607 -2.525248 -0.030494 -0.135866 0.000000 -0.000000 0.000000 
-24.462557 57.313881 3.205048 -2.567838 -77.291575 7.146117 30.236974 10.013684 -2.675000 15.868906 0.223465 -9.767424 15.842212 1.731005 -9.465322 -9.248376 8.661030 0.379088 -21.039172 34.878095 0.870551 -0.000000 0.000000 -0.000002 -10.306447 -7.610449 -0.617092 -63.675156 12.390992 -58.409544 -78.199444 24.923145 -91.785291 -21.091383 -1.815528 8.099021 0.699130 9.503400 -2.418100 5.975213 12.647525 1.348333 -23.873533 -17.664228 1.604917 0.000002 0.000001 -0.000001 -7.938275 1.609072 -6.495674 2.210595 4.583670 -51.475174 0.883834 3.096052 -31.858109 0.000002 -0.000000 0.000003 1.254230 -0.073740 -17.945774 3.754105 5.463596 -68.965267 5.298518 9.638346 -33.747043 0.000001 0.000001 0.000003 10.058169 -1.800567 -20.644711 1.774246 4.200451 -45.782102 1.632177 4.057815 -43.809431 -0.000001 -0.000001 0.000006 9.479719 -1.289792 -20.785539 0.709474 2.796418 -28.467108 0.714019 2.804755 -28.559726 -0.000001 0.000003 -0.000001 -8.636877 7.624868 0.640445 -29.532720 58.743042 41.142368 -104.821875 44.770159 100.659674 8.974611 12.248968 -5.752891 13.942482 -4.273695 -5.300368 7.113182 -20.767494 -2.619493 -3.463338 -24.899709 -18.660432 -0.000001 -0.000001 0.000001 0.357783 -5.832711 5.175841 0.094340 -0.933625 11.539839 0.777639 -2.578459 33.559940 -0.000001 -0.000001 -0.000002 3.764098 -12.080533 1.143760 5.714267 -4.535889 103.133466 3.160511 -4.410619 71.234946 0.000001 0.000001 -0.000001 -12.155624 -12.623907 9.228346 6.566936 -4.248384 114.232277 3.755134 -4.569156 78.819734 -0.000000 0.000000 -0.000005 -17.635755 -10.496821 3.325435 4.993675 -4.645023 94.147935 3.647349 -4.546575 77.463423 -0.000003 -0.000000 0.000006 -83.857258 7.464674 -0.289518 76.598803 -2.438836 -5.646032 8.047139 1.119914 -4.374551 -0.703574 -0.684540 3.181953 0.000000 0.000000 0.000001 -11.829239 -3.270382 -3.523441 97.244163 -4.200820 1.523066 -81.846416 0.126293 -2.953616 -7.063445 -0.031679 -0.632057 0.000000 0.000001 0.000000 
-30.428904 57.884811 2.886013 1.784984 -78.702016 12.003345 29.561595 10.563483 -3.756879 15.903184 0.224846 -9.841126 15.876128 1.718185 -9.540576 -9.238716 8.722251 0.372366 -21.016933 35.170276 0.876690 0.000000 -0.000000 -0.000000 -9.747809 -6.686753 -0.989642 -64.266554 11.456973 -58.574999 -78.486551 24.522998 -91.446678 -21.718863 -1.997047 7.934183 0.699130 9.503394 -2.418102 5.975213 12.647524 1.348333 -23.873528 -17.664223 1.604916 0.000001 0.000001 -0.000001 -7.938273 1.609073 -6.495676 2.210601 4.583668 -51.475178 0.883830 3.096051 -31.858106 0.000002 -0.000005 -0.000003 1.254230 -0.073740 -17.945774 3.754106 5.463594 -68.965267 5.298520 9.638344 -33.747043 -0.000000 0.000000 0.000003 10.058169 -1.800568 -20.644711 1.774247 4.200451 -45.782102 1.632176 4.057817 -43.809428 -0.000004 -0.000002 0.000004 9.479719 -1.289793 -20.785541 0.709473 2.796423 -28.467107 0.714020 2.804757 -28.559729 -0.000000 0.000001 0.000001 -8.006541 8.471577 0.663337 -30.739485 58.138618 41.976782 -104.798891 44.401113 100.636239 9.656635 11.588164 -5.060412 13.942481 -4.273692 -5.300366 7.113180 -20.767499 -2.619494 -3.463339 -24.899711 -18.660434 0.000001 0.000000 -0.000000 0.357783 -5.832714 5.175843 0.094343 -0.933621 11.539843 0.777641 -2.578456 33.559943 -0.000001 -0.000001 -0.000001 3.764099 -12.080533 1.143764 5.714266 -4.535888 103.133466 3.160511 -4.410619 71.234953 -0.000000 0.000000 -0.000001 -12.155622 -12.623909 9.228345 6.566932 -4.248385 114.232277 3.755135 -4.569156 78.819727 0.000001 -0.000000 -0.000003 -17.635753 -10.496821 3.325435 4.993672 -4.645018 94.147929 3.647348 -4.546579 77.463423 0.000001 -0.000001 -0.000001 -84.334641 7.995501 1.711860 65.175646 1.643024 -7.428464 7.072049 -0.393995 -6.568813 -0.097842 0.922174 -1.216015 -0.000001 0.000000 0.000000 -4.454594 -3.115250 -1.634371 93.286799 -4.918946 1.299236 -83.179116 -0.341768 -3.900375 -11.386040 0.352848 -0.828320 -0.000000 -0.000000 0.000000 
